<svg width="25" height="25" viewBox="0 0 25 25" fill="none" xmlns="http://www.w3.org/2000/svg">
<path d="M16.4062 14.6875L10.5729 11.3021C10.3125 11.1458 10.0521 11.1458 9.79167 11.3021C9.53125 11.4062 9.375 11.6667 9.375 11.9792V18.75C9.375 19.0104 9.53125 19.2708 9.79167 19.4271C9.89583 19.4792 10.0521 19.5312 10.1562 19.5312C10.3125 19.5312 10.4167 19.4792 10.5729 19.4271L16.4062 16.0417C16.6667 15.8854 16.7708 15.625 16.7708 15.3646C16.7708 15.1042 16.6146 14.8437 16.4062 14.6875V14.6875ZM22.8646 2.08333C21.5625 0.833333 20 0 16.5104 0H8.4375C5 0 3.4375 0.833333 2.08333 2.13542C0.833333 3.4375 0 5 0 8.4375V16.5104C0 19.9479 0.833333 21.5625 2.13542 22.8646C3.4375 24.1146 5 24.9479 8.48958 24.9479H16.5625C20 24.9479 21.6146 24.1146 22.9167 22.8125C24.1667 21.5104 25 19.9479 25 16.4583V8.4375C25 5 24.1667 3.4375 22.8646 2.08333ZM16.5625 1.5625C19.8437 1.5625 20.9375 2.39583 21.7708 3.22917C22.3958 3.85417 22.9687 4.63542 23.2812 6.25H18.4375L15.7812 1.5625H16.5625V1.5625ZM8.4375 1.5625H13.9062L16.5625 6.25H10.3125L7.65625 1.5625H8.4375V1.5625ZM3.22917 3.22917C3.80208 2.65625 4.53125 2.08333 5.98958 1.77083L8.54167 6.25H1.71875C2.03125 4.63542 2.60417 3.85417 3.22917 3.22917V3.22917ZM23.4375 16.5625C23.4375 19.8437 22.6042 20.9375 21.7708 21.7708C20.9375 22.6042 19.7917 23.4375 16.5625 23.4375H8.4375C5.15625 23.4375 4.0625 22.6042 3.22917 21.7708C2.39583 20.9375 1.5625 19.7917 1.5625 16.5625V7.8125H23.4375V16.5625Z" fill="white"/>
</svg>
